HIERARCHY
ROOT Hips
{
	OFFSET 0.000000 0.000000 0.000000
	CHANNELS 6 Xposition Yposition Zposition Xrotation Yrotation Zrotation
	JOINT LeftUpLeg_virtual
	{
		OFFSET 0.000000 0.000000 0.000000
		CHANNELS 3 Xrotation Yrotation Zrotation
		JOINT LeftUpLeg
		{
			OFFSET 15.427100 -6.655098 0.678600
			CHANNELS 3 Xrotation Yrotation Zrotation
			JOINT LeftLeg
			{
				OFFSET 4.081073 -39.591068 13.024000
				CHANNELS 3 Xrotation Yrotation Zrotation
				JOINT LeftFoot
				{
					OFFSET -4.081074 -37.707932 -15.979700
					CHANNELS 3 Xrotation Yrotation Zrotation
					JOINT LeftToeBase
					{
						OFFSET 5.346399 -15.068900 20.645000
						CHANNELS 3 Xrotation Yrotation Zrotation
						JOINT LeftToe_End
						{
							OFFSET 2.754700 0.931300 11.300900
							CHANNELS 3 Xrotation Yrotation Zrotation
							End Site
							{
								OFFSET 0 0 0
							}
						}
					}
				}
			}
		}
	}
	JOINT RightUpLeg_virtual
	{
		OFFSET 0.000000 0.000000 0.000000
		CHANNELS 3 Xrotation Yrotation Zrotation
		JOINT RightUpLeg
		{
			OFFSET -15.569500 -6.655098 0.678600
			CHANNELS 3 Xrotation Yrotation Zrotation
			JOINT RightLeg
			{
				OFFSET -4.081825 -39.591045 13.023800
				CHANNELS 3 Xrotation Yrotation Zrotation
				JOINT RightFoot
				{
					OFFSET 4.081824 -37.707954 -15.979600
					CHANNELS 3 Xrotation Yrotation Zrotation
					JOINT RightToeBase
					{
						OFFSET -5.346400 -15.068900 20.645000
						CHANNELS 3 Xrotation Yrotation Zrotation
						JOINT RightToe_End
						{
							OFFSET -2.754700 0.931300 11.300900
							CHANNELS 3 Xrotation Yrotation Zrotation
							End Site
							{
								OFFSET 0 0 0
							}
						}
					}
				}
			}
		}
	}
	JOINT Spine_virtual
	{
		OFFSET 0.000000 0.000000 0.000000
		CHANNELS 3 Xrotation Yrotation Zrotation
		JOINT Spine
		{
			OFFSET -0.279200 12.230698 -2.892100
			CHANNELS 3 Xrotation Yrotation Zrotation
			JOINT Spine1
			{
				OFFSET -0.232667 10.192268 -1.242267
				CHANNELS 3 Xrotation Yrotation Zrotation
				JOINT Spine1_split
				{
					OFFSET -0.232667 10.192268 -1.242267
					CHANNELS 3 Xrotation Yrotation Zrotation
					JOINT Spine2
					{
						OFFSET -0.232667 10.192268 -1.242267
						CHANNELS 3 Xrotation Yrotation Zrotation
						JOINT Neck_virtual
						{
							OFFSET 0.000000 0.000000 0.000000
							CHANNELS 3 Xrotation Yrotation Zrotation
							JOINT Neck
							{
								OFFSET -0.418800 17.814194 8.416900
								CHANNELS 3 Xrotation Yrotation Zrotation
								JOINT Head
								{
									OFFSET 0.000000 7.031097 3.806800
									CHANNELS 3 Xrotation Yrotation Zrotation
									JOINT HeadTop_End
									{
										OFFSET 0.000000 24.646606 12.978600
										CHANNELS 3 Xrotation Yrotation Zrotation
										End Site
										{
											OFFSET 0 0 0
										}
									}
								}
							}
						}
						JOINT LeftShoulder_virtual
						{
							OFFSET 0.000000 0.000000 0.000000
							CHANNELS 3 Xrotation Yrotation Zrotation
							JOINT LeftShoulder
							{
								OFFSET 8.476499 7.247704 -3.868750
								CHANNELS 3 Xrotation Yrotation Zrotation
								JOINT LeftShoulder_split
								{
									OFFSET 8.476499 7.247704 -3.868750
									CHANNELS 3 Xrotation Yrotation Zrotation
									JOINT LeftArm
									{
										OFFSET 9.308998 -2.777710 0.208600
										CHANNELS 3 Xrotation Yrotation Zrotation
										JOINT LeftForeArm
										{
											OFFSET 29.972298 0.000000 0.000000
											CHANNELS 3 Xrotation Yrotation Zrotation
											JOINT LeftHand
											{
												OFFSET 26.026505 0.000000 0.000000
												CHANNELS 3 Xrotation Yrotation Zrotation
												End Site
												{
													OFFSET 0 0 0
												}
											}
										}
									}
								}
							}
						}
						JOINT RightShoulder_virtual
						{
							OFFSET 0.000000 0.000000 0.000000
							CHANNELS 3 Xrotation Yrotation Zrotation
							JOINT RightShoulder
							{
								OFFSET -7.570500 7.247704 -3.868750
								CHANNELS 3 Xrotation Yrotation Zrotation
								JOINT RightShoulder_split
								{
									OFFSET -7.570500 7.247704 -3.868750
									CHANNELS 3 Xrotation Yrotation Zrotation
									JOINT RightArm
									{
										OFFSET -9.308998 -2.777710 0.208500
										CHANNELS 3 Xrotation Yrotation Zrotation
										JOINT RightForeArm
										{
											OFFSET -29.972300 0.000000 0.000000
											CHANNELS 3 Xrotation Yrotation Zrotation
											JOINT RightHand
											{
												OFFSET -26.026505 0.000000 0.000000
												CHANNELS 3 Xrotation Yrotation Zrotation
												End Site
												{
													OFFSET 0 0 0
												}
											}
										}
									}
								}
							}
						}
					}
				}
			}
		}
	}
}
MOTION
Frames: 7
Frame Time: 0.03333333
4.982076 80.446220 -0.713776 0.000000 0.000000 0.000000 159.023797 -87.021453 159.701161 -24.840597 31.883712 41.793285 27.900978 -13.187785 -0.835310 -11.378540 7.933883 -22.031142 -0.540218 -0.753222 -0.504734 0.000000 0.000000 0.000000 168.071558 -87.077044 169.278616 -38.852237 -7.030766 -28.239320 22.029404 10.684800 -2.503543 9.454279 11.876446 20.466042 4.704738 1.132938 1.723207 0.000000 0.000000 0.000000 67.315052 -88.912493 68.364818 6.180158 0.050418 -7.400216 1.209622 0.059538 -0.875889 0.903570 0.397828 0.275446 0.000000 0.000000 0.000000 1.897242 -0.345545 -1.290618 -10.456091 4.856042 3.797952 29.247307 75.447390 -32.402889 0.000000 0.000000 0.000000 3.125812 -0.474882 -0.825081 5.554988 -4.190609 11.104247 -2.150355 -3.592237 1.293236 -38.405641 5.935726 4.464636 -4.018084 -10.306364 -0.157015 0.000000 0.000000 0.000000 2.631093 -0.375602 -1.463690 -1.569450 0.397699 -18.646386 2.473810 1.863980 6.556533 -61.188994 53.780995 54.226644 179.754788 41.283856 -178.783617 0.000000 0.000000 0.000000 
4.989156 80.447128 -0.698837 0.000000 0.000000 0.000000 159.302811 -87.020858 159.984627 -24.852357 31.866241 41.811806 27.905738 -13.195756 -0.833515 -11.376240 7.925103 -22.027386 -0.535796 -0.752025 -0.506456 0.000000 0.000000 0.000000 168.245045 -87.107479 169.460586 -38.824663 -6.986644 -28.243384 21.973560 10.683147 -2.513447 9.452625 11.888592 20.508234 4.661408 1.125786 1.718181 0.000000 0.000000 0.000000 68.739782 -88.929726 69.816124 6.183064 0.048128 -7.395441 1.208738 0.038738 -0.882854 0.874841 0.308274 0.270560 0.000000 0.000000 0.000000 1.905294 -0.360749 -1.289518 -10.432480 4.844741 3.796637 29.318006 75.517386 -32.507404 0.000000 0.000000 0.000000 3.128385 -0.493389 -0.823302 5.564064 -4.210846 11.136110 -2.086798 -3.573180 1.343874 -38.394781 5.959591 4.454213 -3.984946 -10.335032 -0.140868 0.000000 0.000000 0.000000 2.619053 -0.395984 -1.457173 -1.574227 0.352801 -18.677887 2.430095 1.875841 6.522151 -61.363444 53.848361 54.297275 179.739064 41.214072 -178.784805 0.000000 0.000000 0.000000 
4.990541 80.439087 -0.683487 0.000000 0.000000 0.000000 159.592643 -87.014821 160.286522 -24.856354 31.828326 41.814302 27.911577 -13.206201 -0.834698 -11.365974 7.926541 -22.039318 -0.522078 -0.750124 -0.512212 0.000000 0.000000 0.000000 168.238515 -87.138570 169.462212 -38.796028 -6.973918 -28.268635 21.934852 10.646577 -2.521039 9.369747 11.864764 20.510227 4.690474 1.128099 1.723692 0.000000 0.000000 0.000000 68.607310 -88.928079 69.711206 6.192625 0.045987 -7.381717 1.219234 -0.000315 -0.887841 0.861665 0.244515 0.283954 0.000000 0.000000 0.000000 1.921076 -0.397121 -1.289663 -10.384608 4.802686 3.818547 29.636245 75.637692 -32.887125 0.000000 0.000000 0.000000 3.140515 -0.534848 -0.823367 5.582270 -4.226009 11.193911 -2.037033 -3.574525 1.430862 -38.399313 6.074440 4.360975 -3.953713 -10.438739 -0.128464 0.000000 0.000000 0.000000 2.620362 -0.436858 -1.446837 -1.579999 0.291484 -18.733913 2.396751 1.860035 6.507317 -61.569012 53.942519 54.363853 179.718123 41.192331 -178.801157 0.000000 0.000000 0.000000 
4.986600 80.424042 -0.671719 0.000000 0.000000 0.000000 159.840989 -86.994890 160.550331 -24.850661 31.773869 41.800498 27.917722 -13.214765 -0.839765 -11.346260 7.934198 -22.061470 -0.500447 -0.747051 -0.523305 0.000000 0.000000 0.000000 167.993530 -87.164272 169.226802 -38.782005 -6.990236 -28.319281 21.920715 10.594433 -2.520480 9.249211 11.822629 20.496964 4.749045 1.139783 1.732450 0.000000 0.000000 0.000000 66.958052 -88.905854 68.085067 6.208644 0.041716 -7.361756 1.239253 -0.059230 -0.889970 0.870991 0.208475 0.318918 0.000000 0.000000 0.000000 1.939162 -0.456814 -1.290578 -10.317058 4.733346 3.864165 30.179085 75.808536 -33.513474 0.000000 0.000000 0.000000 3.156404 -0.602228 -0.824595 5.609307 -4.233265 11.284610 -2.012779 -3.590482 1.523448 -38.430975 6.283038 4.200353 -3.929963 -10.592159 -0.116092 0.000000 0.000000 0.000000 2.630883 -0.499663 -1.432776 -1.587967 0.215376 -18.810623 2.367925 1.816784 6.510162 -61.762006 54.030136 54.429057 179.695529 41.225594 -178.829502 0.000000 0.000000 0.000000 
4.978206 80.407501 -0.662834 0.000000 0.000000 0.000000 159.940901 -86.961074 160.663576 -24.840787 31.703901 41.776353 27.915835 -13.215704 -0.850223 -11.316391 7.939528 -22.085707 -0.473286 -0.743118 -0.537500 0.000000 0.000000 0.000000 167.483697 -87.185616 168.725904 -38.785929 -7.023791 -28.398140 21.929413 10.556355 -2.505504 9.131100 11.787671 20.515742 4.763161 1.157456 1.738884 0.000000 0.000000 0.000000 64.385509 -88.868752 65.531465 6.228538 0.034112 -7.335720 1.264262 -0.140595 -0.889264 0.884983 0.210072 0.338537 0.000000 0.000000 0.000000 1.951855 -0.541551 -1.291730 -10.233950 4.638279 3.933687 30.887475 76.017389 -34.314584 0.000000 0.000000 0.000000 3.172262 -0.698212 -0.827227 5.645560 -4.229849 11.412331 -2.009807 -3.626018 1.589322 -38.497033 6.569166 3.995432 -3.916106 -10.756359 -0.100989 0.000000 0.000000 0.000000 2.642903 -0.585370 -1.415341 -1.598856 0.124796 -18.905851 2.341153 1.762674 6.520029 -61.932344 54.073850 54.506276 179.678453 41.306904 -178.866931 0.000000 0.000000 0.000000 
4.967688 80.395470 -0.660816 0.000000 0.000000 0.000000 159.740694 -86.924703 160.467576 -24.824963 31.618752 41.746946 27.901920 -13.206204 -0.865827 -11.277348 7.932279 -22.101584 -0.443418 -0.740188 -0.551163 0.000000 0.000000 0.000000 166.759765 -87.205929 168.007736 -38.793746 -7.060497 -28.495182 21.954158 10.546962 -2.481124 9.038489 11.760078 20.582900 4.703421 1.176754 1.738815 0.000000 0.000000 0.000000 61.343903 -88.821310 62.503915 6.247002 0.023837 -7.302631 1.288656 -0.247954 -0.887908 0.879407 0.251365 0.336830 0.000000 0.000000 0.000000 1.954449 -0.652793 -1.294611 -10.142822 4.519791 4.022382 31.702822 76.246542 -35.217374 0.000000 0.000000 0.000000 3.185207 -0.822864 -0.830166 5.691684 -4.213650 11.574779 -2.027921 -3.680081 1.630306 -38.597761 6.905103 3.760811 -3.910656 -10.899522 -0.080913 0.000000 0.000000 0.000000 2.648488 -0.696150 -1.395060 -1.614207 0.025458 -19.021971 2.320317 1.707870 6.533988 -62.079945 54.051877 54.618823 179.671049 41.412830 -178.904128 0.000000 0.000000 0.000000 
4.956892 80.394272 -0.658230 0.000000 0.000000 0.000000 159.183433 -86.904212 159.902856 -24.811427 31.526965 41.722101 27.877361 -13.180298 -0.886598 -11.239895 7.904035 -22.100100 -0.411059 -0.739034 -0.560510 0.000000 0.000000 0.000000 165.931058 -87.227868 167.181188 -38.791585 -7.084522 -28.599916 21.978937 10.558529 -2.452945 8.965323 11.714474 20.684379 4.600686 1.192526 1.736304 0.000000 0.000000 0.000000 57.958595 -88.762666 59.125936 6.261206 0.013258 -7.259008 1.307956 -0.383191 -0.886653 0.863620 0.313724 0.325642 0.000000 0.000000 0.000000 1.945241 -0.790007 -1.300028 -10.045748 4.387985 4.122160 32.578428 76.486644 -36.167149 0.000000 0.000000 0.000000 3.193723 -0.975344 -0.832017 5.745505 -4.184004 11.768858 -2.056243 -3.709947 1.649224 -38.718071 7.254624 3.512121 -3.915810 -11.015822 -0.055062 0.000000 0.000000 0.000000 2.644032 -0.833504 -1.375099 -1.634128 -0.078649 -19.157362 2.306911 1.657486 6.540008 -62.224492 53.965284 54.770594 179.673071 41.519152 -178.933239 0.000000 0.000000 0.000000 
